inDegrees=no
num_controls=7
num_derivatives=13
num_iterations=102
num_multipliers=7
num_parameters=0
num_slacks=7
num_states=26
objective=6.242683
objective_accelerations=0.388239
objective_balance=0.059976
objective_effort=0.423972
objective_height=5.258834
objective_ligament=0.111662
solver_duration=879.108683
status=Solve_Succeeded
success=true
DataType=double
version=3
OpenSimVersion=4.4-2022-07-23-0e9fedc
endheader
time	/jointset/ground_pelvis/pelvis_tilt/value	/jointset/ground_pelvis/pelvis_tx/value	/jointset/ground_pelvis/pelvis_ty/value	/jointset/hip_r/hip_flexion_r/value	/jointset/hip_r/hip_adduction_r/value	/jointset/hip_r/hip_rotation_r/value	/jointset/back/lumbar_extension/value	/jointset/patellofemoral_r/patellar_flexion_r/value	/jointset/knee_r/knee_flexion_r/value	/jointset/knee_r/knee_adduction_r/value	/jointset/knee_r/knee_rotation_r/value	/jointset/ankle_r/ankle_angle_r/value	/jointset/subtalar_r/subtalar_angle_r/value	/jointset/ground_pelvis/pelvis_tilt/speed	/jointset/ground_pelvis/pelvis_tx/speed	/jointset/ground_pelvis/pelvis_ty/speed	/jointset/hip_r/hip_flexion_r/speed	/jointset/hip_r/hip_adduction_r/speed	/jointset/hip_r/hip_rotation_r/speed	/jointset/back/lumbar_extension/speed	/jointset/patellofemoral_r/patellar_flexion_r/speed	/jointset/knee_r/knee_flexion_r/speed	/jointset/knee_r/knee_adduction_r/speed	/jointset/knee_r/knee_rotation_r/speed	/jointset/ankle_r/ankle_angle_r/speed	/jointset/subtalar_r/subtalar_angle_r/speed	/forceset/tau_hip_flexion_r	/forceset/tau_hip_adduction_r	/forceset/tau_hip_rotation_r	/forceset/tau_knee_flexion_r	/forceset/tau_ankle_angle_r	/forceset/tau_subtalar_angle_r	/forceset/tau_lumbar_extension	lambda_cid13_p0	lambda_cid14_p0	lambda_cid14_p1	lambda_cid14_p2	lambda_cid14_p3	lambda_cid14_p4	lambda_cid14_p5	/jointset/ground_pelvis/pelvis_tilt/accel	/jointset/ground_pelvis/pelvis_tx/accel	/jointset/ground_pelvis/pelvis_ty/accel	/jointset/hip_r/hip_flexion_r/accel	/jointset/hip_r/hip_adduction_r/accel	/jointset/hip_r/hip_rotation_r/accel	/jointset/back/lumbar_extension/accel	/jointset/patellofemoral_r/patellar_flexion_r/accel	/jointset/knee_r/knee_flexion_r/accel	/jointset/knee_r/knee_adduction_r/accel	/jointset/knee_r/knee_rotation_r/accel	/jointset/ankle_r/ankle_angle_r/accel	/jointset/subtalar_r/subtalar_angle_r/accel	gamma_cid13_p0	gamma_cid14_p0	gamma_cid14_p1	gamma_cid14_p2	gamma_cid14_p3	gamma_cid14_p4	gamma_cid14_p5
0.5	-0.09789228841447281	0.05891428435365471	0.866954551866988	0.6750469143079907	-0.2283010892637665	-0.1385858751025026	-0.313169338573779	0.6732212126302393	0.6732212126295825	0.03854445378731394	0.1744843015947977	0.2673899178118957	0.0603010562141515	-0.2662921997369025	-0.08152900721743379	-0.3122544959437386	1.366173007428525	-0.008664985449437636	0.2419655447264406	-0.6026259647425213	1.620137031797261	1.620137031797887	-0.2806974892497422	-0.0001257337958091289	0.608253403669589	0.1651648458361123	-0.07466178671967551	-0.002426888443612114	0.007645853246605968	-0.3271105682970594	0.04690673384962582	-0.01821778291967074	0.1340352512445671	-32.83655395486699	-27.54411513401489	-9.535222383480352	-1.674495892677609	6.090391963862039	-671.2936149738282	48.92030220374664	0.04118127707676475	0.2179083865967036	-0.3291630857645618	-0.7879353333298379	-0.07377872636925137	-0.5275567870583874	1.231511106451824	-1.137809555838238	-1.137809555838222	0.4238385087842304	0.0009312557573482516	-0.5291760518879152	-0.1087292181527839	-1.036431523963233e-07	-1.464091863930044e-07	5.125289801825614e-07	-1.214675331439354e-06	3.180606731933991e-08	-1.870385157758634e-07	8.648498172642912e-07
0.51	-0.1005527601431443	0.05811001902271121	0.8638162242853875	0.6886671625997864	-0.2283921830706161	-0.1361913218105564	-0.3191331689566943	0.6893633271711418	0.6893633271712476	0.03576114368946866	0.1744829410154724	0.2734449170376608	0.06194586930735379	-0.265762907726611	-0.07931305487971252	-0.3153401923608085	1.357683062360285	-0.009557340743451211	0.2369711984797643	-0.5900576064812219	1.60805669401065	1.608056694010713	-0.2759157571239791	-0.0001598670996732695	0.6026635258176716	0.1637620724255188	-0.08001928026062187	-0.0007991868517563877	0.008307763519162327	-0.3295384338135838	0.04225914461011838	-0.01742467174118921	0.1389261115792138	-31.93433798012422	-29.16071770488602	-9.594338031507368	-1.5274213243506	6.694077402674806	-674.3223604785599	48.81516371830276	0.06467655817160085	0.225096252921692	-0.2876853079126667	-0.908578430536507	-0.09766123346731477	-0.4816365630052734	1.281873989439568	-1.277503361221445	-1.277503361305684	0.5126582736942717	-0.007816775760687867	-0.5863392522609474	-0.1614733771866888	-8.417800955941159e-08	-8.687243996628495e-08	6.416942132458432e-07	-7.595415991165569e-07	-1.807986315206735e-08	-1.213503951586633e-07	7.314517778832432e-07
0.52	-0.1032067642727154	0.05732824473425654	0.8606491572619686	0.7021967005735517	-0.2284923398909363	-0.1338459645849339	-0.3249688405962959	0.7053777668401066	0.7053777668407759	0.03302711445466786	0.1744807928724577	0.2794415283648091	0.06357557027151697	-0.2649986799096204	-0.07703079871966555	-0.318002384307368	1.348030943813406	-0.01047758813964056	0.2321263314518505	-0.5769942160810519	1.59460205737807	1.594602057377571	-0.2708413166294185	-0.0002832464956102876	0.5965758239490636	0.1621424200279893	-0.08537677380097086	0.0008285147406240493	0.008969673788739189	-0.3319662993299591	0.03761155537079013	-0.01663156056186478	0.1438169719142887	-31.01731070295186	-30.78412027762097	-9.651026551053288	-1.384866656186286	7.292855993500258	-677.46150592702	48.77752058914371	0.08816843841625391	0.2311691510623138	-0.2444621916624819	-1.020370029057953	-0.07935714680484084	-0.497660943305912	1.330517534226074	-1.412669325032082	-1.412669325032066	0.4823801825441014	-0.01691796265713793	-0.6287408552254973	-0.1521050155400657	-5.334910130243094e-08	2.864264963508476e-08	9.87856727877539e-07	1.189132226587643e-07	-1.251258395107945e-07	3.11232343603066e-09	5.380177610341356e-07
0.53	-0.1058520658771736	0.05656960181211156	0.8574576256888184	0.7156241809560522	-0.2286011460878019	-0.1315512753257008	-0.3306715181569559	0.7212509117072549	0.7212509117080456	0.03034222277952454	0.1744785868832667	0.2853750416166836	0.06518904062946873	-0.2640280700616541	-0.07468719278832901	-0.320229518655067	1.337276581445364	-0.01129187478480005	0.2268574838904928	-0.5634738461243605	1.579801911549641	1.579801911549282	-0.2660714928277837	-0.0001834255390290359	0.5900472873293863	0.1605092769396916	-0.0903764091742337	0.002142598048476935	0.009629068158071246	-0.3349375000729305	0.03371637796623331	-0.01592225161945955	0.1484353158159033	-30.09415886159172	-32.17298304667484	-9.70610603803142	-1.239071364862706	7.732778303292895	-680.6505225600926	48.81806746752056	0.1065492038388868	0.2375089834060785	-0.2006636087657408	-1.131242219661245	-0.08350299092937465	-0.5346062460647376	1.372914214919831	-1.547430455513013	-1.547430455491779	0.48430578916177	0.01973669173717665	-0.6768733035967501	-0.1750229702916695	-2.930313573436581e-08	1.134765603194731e-07	1.224496218703609e-06	7.561046646946272e-07	-2.025198430275996e-07	9.558135313045865e-08	4.063031007595007e-07
0.54	-0.1084866529939949	0.05583470548312691	0.8542460578617017	0.7289384631391214	-0.2287183028645617	-0.1293078964588255	-0.33623696852034	0.7369693064673262	0.7369693064682827	0.02770703380451043	0.1744766400171331	0.2912408768547063	0.06678495875357691	-0.2628557823794944	-0.07228148008759837	-0.322009635100594	1.325391303917999	-0.01214770413234743	0.2218642529885905	-0.5495487766264568	1.563652035970609	1.563652035970389	-0.260900776618625	-0.0002314219056062759	0.5830402211793884	0.1586319732587169	-0.09537604454715221	0.003456681356453307	0.01028846252832641	-0.3379087008158818	0.02982120056167066	-0.01521294267696134	0.1530536597178147	-29.1667875296258	-33.56799981160129	-9.760901015531468	-1.094876094938708	8.179126517134941	-683.9344951301508	48.86563747449364	0.1285040052546021	0.2435905049416636	-0.1550586112280422	-1.246553060922558	-0.08766568728267458	-0.4425376114148366	1.411457442468503	-1.682615275152753	-1.682615275152762	0.5625586640492914	-0.0464814272886863	-0.7244467612890079	-0.200937134075566	-1.276170250297323e-08	1.643653368829456e-07	1.339961300212816e-06	1.126366409997469e-06	-2.471074085065331e-07	1.5265310999906e-07	3.428736860566238e-07
0.55	-0.1111085783984936	0.05512412209550267	0.8510189286231478	0.7421285349799577	-0.2288438147004709	-0.1271148006834335	-0.3416611510430154	0.7525196723380383	0.752519672337975	0.02512364828502067	0.1744743542402581	0.2970344378404056	0.06836152084082951	-0.2614936053680841	-0.06982919641856633	-0.3233398037891985	1.312443725764664	-0.01295274184867263	0.2167574413594304	-0.535230275307263	1.546209323151181	1.546209323151414	-0.255758658146289	-0.0002271895711891828	0.5755990767733803	0.1566534805817686	-0.1003620108331753	0.004891278032314743	0.01085120866119466	-0.3406983825871618	0.02572753533337428	-0.01450673284884896	0.157629332785627	-28.23595135017289	-35.02680845295671	-9.828323872435163	-0.9485404988871387	8.697173063824826	-687.185453446458	48.87496681939459	0.145443029609183	0.2468931666956764	-0.1104979178074626	-1.345739777416868	-0.07630075144132838	-0.5443022217193749	1.450664366295827	-1.806870790867296	-1.806870790799209	0.492943798896668	0.02392802843503032	-0.7649227003489186	-0.1999729896644626	-3.332929764971249e-09	1.897492557007922e-07	1.387114238892038e-06	1.303240785423979e-06	-2.68631089516793e-07	1.811953809449114e-07	3.233830559402348e-07
0.5600000000000001	-0.1137158083367935	0.05443823071833068	0.8477807973136805	0.7551837551223178	-0.2289772525010067	-0.1249726828809931	-0.3469404249745651	0.767889256779447	0.7678892567783667	0.02259226502232563	0.17447212127969	0.3027513924980249	0.06991756447028356	-0.2599166891355587	-0.06734307799714977	-0.3242100492831929	1.298420964216249	-0.01373289707037373	0.2116686584081723	-0.5205670584019826	1.527495750110559	1.527495750111244	-0.250500325271123	-0.000220858651656613	0.5677189555636788	0.1545282816984222	-0.1053479771189102	0.006325874708171096	0.01141395479463271	-0.343488064358414	0.02163387010504683	-0.0138005230207959	0.1622050058537069	-27.3026842543062	-36.49342251727329	-9.897969782781157	-0.8008707265923837	9.231574336668062	-690.5541616435173	48.866266444822	0.1714518494772495	0.250357455419134	-0.06307397230599433	-1.461589739938625	-0.08268918835809395	-0.438931875834412	1.480400559685805	-1.93678731939166	-1.936787319391705	0.5858015446157431	-0.04606171026541571	-0.8122421220270294	-0.230278375355268	-2.439349619037688e-09	1.84527345223889e-07	1.352292606175282e-06	1.248050316998898e-06	-2.624781091646454e-07	1.755022687834638e-07	3.566189673276296e-07
0.5700000000000001	-0.1163062625065418	0.05377736028281888	0.8445362662257858	0.7680935097086931	-0.229118399392442	-0.1228812333852142	-0.3520714005078623	0.7830654956970305	0.7830654956965827	0.02011409105920692	0.1744698658222282	0.3083874279553377	0.07145158983736191	-0.2581414511748961	-0.06482578143078012	-0.3246184210772654	1.283358546887532	-0.01449182838600619	0.206617990498092	-0.5055803636068239	1.507552030160495	1.507552030160408	-0.2451259988067664	-0.0002276555180841505	0.5594235021476873	0.1522547285750783	-0.1100794522649991	0.007661260409468258	0.0118662744675587	-0.346476641949801	0.01797648963693885	-0.01308232835547169	0.1665685496878836	-26.36825881923785	-37.81326526059182	-9.934124152396373	-0.6614979981558696	9.65006293969347	-693.8399715506417	48.92814628466374	0.185477619546365	0.2531481105227282	-0.01802224371549503	-1.554258544961808	-0.0714944348563997	-0.5385620055985088	1.51495663639406	-2.053164434484976	-2.053164434600344	0.5147502169851187	0.02265222644944843	-0.8479284702502728	-0.2288506710681693	-2.123925848300772e-09	1.782652306705308e-07	1.318739602913708e-06	1.18619124420445e-06	-2.556787040443124e-07	1.682063598295668e-07	3.913398135238993e-07
0.58	-0.1188779807266724	0.05314180928362542	0.8412899907277978	0.7808475019586816	-0.2292669354633474	-0.1208403761199445	-0.3570510785538116	0.7980362973948675	0.7980362973949103	0.01768996076468478	0.1744676705762568	0.313938562574712	0.07296228829516005	-0.2561694992067204	-0.062279190733485	-0.3245589313017931	1.267268496933879	-0.01521073296930964	0.2015502123079047	-0.4903075609330918	1.486408306143575	1.486408306142719	-0.2396915915568618	-0.0002088163332714916	0.5507387879770915	0.1498628998419773	-0.1148109274107893	0.008996646110886283	0.01231859413925896	-0.3494652195411532	0.01431910916885988	-0.01236413368994285	0.170932093522315	-25.43415715551986	-39.1416406139231	-9.971784682567666	-0.5218697491916395	10.08442397349917	-697.2570468108356	48.97761415629849	0.2107946509794372	0.2562162816048095	0.03049834160295035	-1.667116264925878	-0.07468384189261786	-0.4423539318557753	1.537622135400466	-2.176788132762666	-2.176788132762566	0.5978177017257902	-0.04093450001720863	-0.8900942729472634	-0.253933497306793	-2.561449915029227e-09	1.70648431738534e-07	1.286838768244929e-06	1.115647477347572e-06	-2.480374434119241e-07	1.588230876110845e-07	4.279945283084707e-07
